<?xml version="1.0" encoding="UTF-8" standalone="no"?>
<!-- Generator: Gravit.io -->
<svg xmlns="http://www.w3.org/2000/svg" xmlns:xlink="http://www.w3.org/1999/xlink" style="isolation:isolate" viewBox="630 174 344 184.072" width="344pt" height="184.072pt"><defs><clipPath id="_clipPath_bkQjFiNP7fEaFWxDRsSHvPDYaWh0VsLZ"><rect x="630" y="174" width="344" height="184.072"/></clipPath></defs><g clip-path="url(#_clipPath_bkQjFiNP7fEaFWxDRsSHvPDYaWh0VsLZ)"><g><path d=" M 655.27 283.58 L 643.07 290.147 L 630 265.714 L 642.201 259.179 C 649.894 255.059 658.49 252.902 667.246 252.87 C 672.912 252.87 678.513 253.739 683.921 255.413 C 690.295 257.376 696.379 260.145 702.013 263.686 C 708.902 268 715.308 272.957 721.167 278.558 C 728.539 285.576 735.363 293.109 741.608 301.157 C 745.375 305.954 749.689 310.332 754.421 314.227 C 758.767 317.768 763.499 320.826 768.553 323.305 C 778.017 327.94 788.415 330.387 798.974 330.387 C 811.4 330.355 823.568 327.039 834.288 320.794 C 839.922 317.51 845.105 313.486 849.708 308.883 C 854.666 303.861 858.947 298.26 862.488 292.176 L 869.441 280.2 L 893.392 294.139 L 886.439 306.082 C 881.707 314.227 875.976 321.727 869.345 328.391 C 863.035 334.733 855.953 340.205 848.227 344.712 C 833.29 353.436 816.293 358.04 799.006 358.072 C 784.198 358.072 769.615 354.66 756.32 348.157 C 749.399 344.744 742.864 340.56 736.876 335.666 C 730.567 330.484 724.804 324.625 719.783 318.186 C 714.374 311.233 708.451 304.698 702.077 298.614 C 697.57 294.3 692.613 290.469 687.333 287.154 C 683.728 284.9 679.833 283.13 675.777 281.874 C 673.008 281.005 670.111 280.586 667.214 280.554 C 663.061 280.586 658.94 281.617 655.27 283.58 Z " fill="rgb(104,178,70)"/><path d=" M 741.512 239.896 L 734.559 251.872 L 710.608 237.965 L 717.561 225.989 C 722.293 217.845 728.024 210.377 734.655 203.713 C 740.965 197.371 748.047 191.866 755.773 187.392 C 770.71 178.668 787.707 174.032 804.994 174 C 819.802 174.032 834.385 177.412 847.648 183.947 C 854.601 187.36 861.136 191.544 867.124 196.438 C 873.433 201.62 879.196 207.479 884.217 213.918 C 889.626 220.871 895.549 227.406 901.923 233.458 C 906.43 237.772 911.387 241.602 916.667 244.918 C 920.272 247.172 924.167 248.974 928.223 250.23 C 930.992 251.067 933.889 251.517 936.786 251.55 C 940.939 251.517 945.06 250.455 948.73 248.491 L 960.93 241.957 L 974 266.358 L 961.799 272.893 C 954.105 277.013 945.51 279.202 936.754 279.235 C 931.088 279.202 925.487 278.333 920.079 276.691 C 913.705 274.728 907.621 271.927 901.987 268.386 C 895.098 264.104 888.692 259.115 882.833 253.513 C 875.461 246.528 868.637 238.963 862.392 230.947 C 858.625 226.118 854.311 221.74 849.579 217.877 C 845.233 214.304 840.501 211.278 835.447 208.799 C 825.983 204.131 815.585 201.717 805.026 201.685 C 792.6 201.717 780.432 205.033 769.712 211.31 C 764.078 214.594 758.895 218.585 754.292 223.221 C 749.334 228.211 745.053 233.812 741.512 239.896 Z " fill="rgb(104,178,70)"/></g></g></svg>